<svg xmlns="http://www.w3.org/2000/svg" viewBox="0 0 64 64" fill="none">
  <rect width="64" height="64" rx="15" fill="#0E2C20"/>
  <g transform="translate(13 8) scale(0.36)">
    <path d="M48 11 C65.5 11 80 24.5 80 45 C80 65 69.5 79 58 84 C54.5 85.5 51 86.2 48 86.2 C45 86.2 41.5 85.5 38 84 C26.5 79 16 65 16 45 C16 24.5 30.5 11 48 11 Z" fill="#F6F1E5" opacity="0.2"/>
    <g fill="#F6F1E5" opacity="0.6">
      <circle cx="32" cy="26" r="5.5"/><circle cx="48" cy="26" r="5.5"/><circle cx="64" cy="26" r="5.5"/>
      <circle cx="32" cy="44" r="5.5"/><circle cx="48" cy="44" r="5.5"/><circle cx="64" cy="44" r="5.5"/>
      <circle cx="32" cy="62" r="5.5"/><circle cx="48" cy="62" r="5.5"/><circle cx="64" cy="62" r="5.5"/>
    </g>
    <path fill-rule="evenodd" fill="#F6F1E5" d="M48 5 C69 5 86 21 86 45 C86 68 74 84 60 90 C56 91.6 52 92.4 48 92.4 C44 92.4 40 91.6 36 90 C22 84 10 68 10 45 C10 21 27 5 48 5 Z M48 11 C65.5 11 80 24.5 80 45 C80 65 69.5 79 58 84 C54.5 85.5 51 86.2 48 86.2 C45 86.2 41.5 85.5 38 84 C26.5 79 16 65 16 45 C16 24.5 30.5 11 48 11 Z"/>
    <rect x="41" y="90" width="14" height="10" rx="4" fill="#F6F1E5"/>
    <rect x="41" y="103" width="14" height="10" rx="4" fill="#F6F1E5"/>
    <rect x="39" y="116" width="18" height="9" rx="4.5" fill="#F6F1E5"/>
  </g>
  <circle cx="47" cy="16.5" r="7" fill="#C9A05A"/>
</svg>
