<svg width="240" height="300" viewBox="0 0 240 300" fill="none" xmlns="http://www.w3.org/2000/svg">
  <g transform="translate(57.5 12) scale(1.3)">
    <path d="M48 11 C65.5 11 80 24.5 80 45 C80 65 69.5 79 58 84 C54.5 85.5 51 86.2 48 86.2 C45 86.2 41.5 85.5 38 84 C26.5 79 16 65 16 45 C16 24.5 30.5 11 48 11 Z" fill="#173A30" opacity="0.14"/>
    <g fill="#173A30" opacity="0.5">
      <circle cx="40" cy="16" r="2.2"/><circle cx="48" cy="16" r="2.2"/><circle cx="56" cy="16" r="2.2"/>
      <circle cx="32" cy="24" r="2.2"/><circle cx="40" cy="24" r="2.2"/><circle cx="48" cy="24" r="2.2"/><circle cx="56" cy="24" r="2.2"/><circle cx="64" cy="24" r="2.2"/>
      <circle cx="24" cy="32" r="2.2"/><circle cx="32" cy="32" r="2.2"/><circle cx="40" cy="32" r="2.2"/><circle cx="48" cy="32" r="2.2"/><circle cx="56" cy="32" r="2.2"/><circle cx="64" cy="32" r="2.2"/><circle cx="72" cy="32" r="2.2"/>
      <circle cx="24" cy="40" r="2.2"/><circle cx="32" cy="40" r="2.2"/><circle cx="40" cy="40" r="2.2"/><circle cx="48" cy="40" r="2.2"/><circle cx="56" cy="40" r="2.2"/><circle cx="64" cy="40" r="2.2"/><circle cx="72" cy="40" r="2.2"/>
      <circle cx="24" cy="48" r="2.2"/><circle cx="32" cy="48" r="2.2"/><circle cx="40" cy="48" r="2.2"/><circle cx="48" cy="48" r="2.2"/><circle cx="56" cy="48" r="2.2"/><circle cx="64" cy="48" r="2.2"/><circle cx="72" cy="48" r="2.2"/>
      <circle cx="24" cy="56" r="2.2"/><circle cx="32" cy="56" r="2.2"/><circle cx="40" cy="56" r="2.2"/><circle cx="48" cy="56" r="2.2"/><circle cx="56" cy="56" r="2.2"/><circle cx="64" cy="56" r="2.2"/><circle cx="72" cy="56" r="2.2"/>
      <circle cx="32" cy="64" r="2.2"/><circle cx="40" cy="64" r="2.2"/><circle cx="48" cy="64" r="2.2"/><circle cx="56" cy="64" r="2.2"/><circle cx="64" cy="64" r="2.2"/>
      <circle cx="32" cy="72" r="2.2"/><circle cx="40" cy="72" r="2.2"/><circle cx="48" cy="72" r="2.2"/><circle cx="56" cy="72" r="2.2"/><circle cx="64" cy="72" r="2.2"/>
      <circle cx="40" cy="80" r="2.2"/><circle cx="48" cy="80" r="2.2"/><circle cx="56" cy="80" r="2.2"/>
    </g>
    <path fill-rule="evenodd" fill="#173A30" d="M48 5 C69 5 86 21 86 45 C86 68 74 84 60 90 C56 91.6 52 92.4 48 92.4 C44 92.4 40 91.6 36 90 C22 84 10 68 10 45 C10 21 27 5 48 5 Z M48 11 C65.5 11 80 24.5 80 45 C80 65 69.5 79 58 84 C54.5 85.5 51 86.2 48 86.2 C45 86.2 41.5 85.5 38 84 C26.5 79 16 65 16 45 C16 24.5 30.5 11 48 11 Z"/>
    <path d="M48 11 C65.5 11 80 24.5 80 45 C80 65 69.5 79 58 84 C54.5 85.5 51 86.2 48 86.2 C45 86.2 41.5 85.5 38 84 C26.5 79 16 65 16 45 C16 24.5 30.5 11 48 11 Z" stroke="#C9A961" stroke-width="1.3" opacity="0.9"/>
    <rect x="43" y="90" width="10" height="8" rx="3" fill="#173A30"/>
    <rect x="43" y="100" width="10" height="8" rx="3" fill="#173A30"/>
    <rect x="43" y="110" width="10" height="8" rx="3" fill="#173A30"/>
    <rect x="41" y="120" width="14" height="7" rx="3.5" fill="#173A30"/>
  </g>
  <g transform="translate(24 218) scale(0.9)" stroke="#173A30" stroke-width="5" stroke-linecap="round" stroke-linejoin="round">
    <path d="M3 2.5 V37.5"/>
    <path d="M3 2.5 H12 A9.25 9.25 0 0 1 12 21 H3"/>
    <path d="M12 21 L24 37.5"/>
    <g transform="translate(42 0)">
      <path d="M2 37.5 L13 2.5 L24 37.5"/>
      <path d="M7 25 H19"/>
    </g>
    <g transform="translate(86 0)"><path d="M3 2.5 V37.5 H20"/></g>
    <g transform="translate(124 0)"><path d="M3 2.5 V37.5 H20"/></g>
    <g transform="translate(162 0)">
      <path d="M2 2.5 L12.5 19 L23 2.5"/>
      <path d="M12.5 19 V37.5"/>
    </g>
    <circle cx="208" cy="20" r="6.5" fill="#C9A961" stroke="none"/>
  </g>
  <rect x="96" y="272" width="48" height="4" rx="2" fill="#C9A961"/>
</svg>
