<svg width="240" height="300" viewBox="0 0 240 300" fill="none" xmlns="http://www.w3.org/2000/svg">
  <defs>
    <clipPath id="headV">
      <path d="M48 16 C66 16 78 30 78 49 C78 70 64 82 48 82 C32 82 18 70 18 49 C18 30 30 16 48 16 Z" transform="translate(57.5 12) scale(1.3)"/>
    </clipPath>
  </defs>
  <g clip-path="url(#headV)" stroke="#173A30" stroke-linecap="round" opacity="0.9">
    <g transform="translate(57.5 12) scale(1.3)" stroke-width="3.2">
      <line x1="-52" y1="-6" x2="58" y2="104"/><line x1="58" y1="-6" x2="-52" y2="104"/>
      <line x1="-37" y1="-6" x2="73" y2="104"/><line x1="73" y1="-6" x2="-37" y2="104"/>
      <line x1="-22" y1="-6" x2="88" y2="104"/><line x1="88" y1="-6" x2="-22" y2="104"/>
      <line x1="-7" y1="-6" x2="103" y2="104"/><line x1="103" y1="-6" x2="-7" y2="104"/>
      <line x1="8" y1="-6" x2="118" y2="104"/><line x1="118" y1="-6" x2="8" y2="104"/>
      <line x1="23" y1="-6" x2="133" y2="104"/><line x1="133" y1="-6" x2="23" y2="104"/>
      <line x1="38" y1="-6" x2="148" y2="104"/><line x1="148" y1="-6" x2="38" y2="104"/>
    </g>
  </g>
  <g transform="translate(57.5 12) scale(1.3)">
    <path d="M48 7 C71 7 87 24 87 49 C87 75 69 91 48 91 C27 91 9 75 9 49 C9 24 25 7 48 7 Z" stroke="#173A30" stroke-width="6.5"/>
    <rect x="41.5" y="90" width="13" height="33" rx="6.5" fill="#173A30"/>
  </g>
  <g transform="translate(24 218) scale(0.9)" stroke="#173A30" stroke-width="5" stroke-linecap="round" stroke-linejoin="round">
    <path d="M3 2.5 V37.5"/>
    <path d="M3 2.5 H12 A9.25 9.25 0 0 1 12 21 H3"/>
    <path d="M12 21 L24 37.5"/>
    <g transform="translate(42 0)">
      <path d="M2 37.5 L13 2.5 L24 37.5"/>
      <path d="M7 25 H19"/>
    </g>
    <g transform="translate(86 0)"><path d="M3 2.5 V37.5 H20"/></g>
    <g transform="translate(124 0)"><path d="M3 2.5 V37.5 H20"/></g>
    <g transform="translate(162 0)">
      <path d="M2 2.5 L12.5 19 L23 2.5"/>
      <path d="M12.5 19 V37.5"/>
    </g>
    <circle cx="208" cy="20" r="6.5" fill="#C9A961" stroke="none"/>
  </g>
  <rect x="96" y="272" width="48" height="4" rx="2" fill="#C9A961"/>
</svg>
