<svg width="512" height="512" viewBox="0 0 512 512" fill="none" xmlns="http://www.w3.org/2000/svg">
  <defs>
    <clipPath id="headL">
      <path d="M48 16 C66 16 78 30 78 49 C78 70 64 82 48 82 C32 82 18 70 18 49 C18 30 30 16 48 16 Z" transform="translate(118 92) scale(2.6)"/>
    </clipPath>
  </defs>
  <rect width="512" height="512" rx="116" fill="#FAF8F3"/>
  <g clip-path="url(#headL)" stroke="#173A30" stroke-linecap="round" opacity="0.9">
    <g transform="translate(118 92) scale(2.6)" stroke-width="3.2">
      <line x1="-52" y1="-6" x2="58" y2="104"/><line x1="58" y1="-6" x2="-52" y2="104"/>
      <line x1="-37" y1="-6" x2="73" y2="104"/><line x1="73" y1="-6" x2="-37" y2="104"/>
      <line x1="-22" y1="-6" x2="88" y2="104"/><line x1="88" y1="-6" x2="-22" y2="104"/>
      <line x1="-7" y1="-6" x2="103" y2="104"/><line x1="103" y1="-6" x2="-7" y2="104"/>
      <line x1="8" y1="-6" x2="118" y2="104"/><line x1="118" y1="-6" x2="8" y2="104"/>
      <line x1="23" y1="-6" x2="133" y2="104"/><line x1="133" y1="-6" x2="23" y2="104"/>
      <line x1="38" y1="-6" x2="148" y2="104"/><line x1="148" y1="-6" x2="38" y2="104"/>
    </g>
  </g>
  <g transform="translate(118 92) scale(2.6)">
    <path d="M48 7 C71 7 87 24 87 49 C87 75 69 91 48 91 C27 91 9 75 9 49 C9 24 25 7 48 7 Z" stroke="#173A30" stroke-width="6.5"/>
    <rect x="41.5" y="90" width="13" height="33" rx="6.5" fill="#173A30"/>
  </g>
  <circle cx="396" cy="126" r="44" fill="#C9A961"/>
  <path d="M358 146 C372 126 392 114 420 116" stroke="#A98944" stroke-width="4.5" fill="none" stroke-linecap="round" opacity="0.75"/>
  <circle cx="382" cy="110" r="11" fill="#E8D6B0" opacity="0.6"/>
</svg>
