<svg width="512" height="512" viewBox="0 0 512 512" fill="none" xmlns="http://www.w3.org/2000/svg">
  <defs>
    <linearGradient id="bg" x1="0" y1="0" x2="512" y2="512" gradientUnits="userSpaceOnUse">
      <stop offset="0" stop-color="#1E4A3C"/>
      <stop offset="1" stop-color="#0B201A"/>
    </linearGradient>
  </defs>
  <rect width="512" height="512" rx="116" fill="url(#bg)"/>
  <g transform="translate(118 92) scale(2.6)">
    <path d="M48 11 C65.5 11 80 24.5 80 45 C80 65 69.5 79 58 84 C54.5 85.5 51 86.2 48 86.2 C45 86.2 41.5 85.5 38 84 C26.5 79 16 65 16 45 C16 24.5 30.5 11 48 11 Z" fill="#FAF8F3" opacity="0.15"/>
    <g fill="#04110D" opacity="0.5">
      <circle cx="40" cy="16" r="2.2"/><circle cx="48" cy="16" r="2.2"/><circle cx="56" cy="16" r="2.2"/>
      <circle cx="32" cy="24" r="2.2"/><circle cx="40" cy="24" r="2.2"/><circle cx="48" cy="24" r="2.2"/><circle cx="56" cy="24" r="2.2"/><circle cx="64" cy="24" r="2.2"/>
      <circle cx="24" cy="32" r="2.2"/><circle cx="32" cy="32" r="2.2"/><circle cx="40" cy="32" r="2.2"/><circle cx="48" cy="32" r="2.2"/><circle cx="56" cy="32" r="2.2"/><circle cx="64" cy="32" r="2.2"/><circle cx="72" cy="32" r="2.2"/>
      <circle cx="24" cy="40" r="2.2"/><circle cx="32" cy="40" r="2.2"/><circle cx="40" cy="40" r="2.2"/><circle cx="48" cy="40" r="2.2"/><circle cx="56" cy="40" r="2.2"/><circle cx="64" cy="40" r="2.2"/><circle cx="72" cy="40" r="2.2"/>
      <circle cx="24" cy="48" r="2.2"/><circle cx="32" cy="48" r="2.2"/><circle cx="40" cy="48" r="2.2"/><circle cx="48" cy="48" r="2.2"/><circle cx="56" cy="48" r="2.2"/><circle cx="64" cy="48" r="2.2"/><circle cx="72" cy="48" r="2.2"/>
      <circle cx="24" cy="56" r="2.2"/><circle cx="32" cy="56" r="2.2"/><circle cx="40" cy="56" r="2.2"/><circle cx="48" cy="56" r="2.2"/><circle cx="56" cy="56" r="2.2"/><circle cx="64" cy="56" r="2.2"/><circle cx="72" cy="56" r="2.2"/>
      <circle cx="32" cy="64" r="2.2"/><circle cx="40" cy="64" r="2.2"/><circle cx="48" cy="64" r="2.2"/><circle cx="56" cy="64" r="2.2"/><circle cx="64" cy="64" r="2.2"/>
      <circle cx="32" cy="72" r="2.2"/><circle cx="40" cy="72" r="2.2"/><circle cx="48" cy="72" r="2.2"/><circle cx="56" cy="72" r="2.2"/><circle cx="64" cy="72" r="2.2"/>
      <circle cx="40" cy="80" r="2.2"/><circle cx="48" cy="80" r="2.2"/><circle cx="56" cy="80" r="2.2"/>
    </g>
    <path fill-rule="evenodd" fill="#FAF8F3" d="M48 5 C69 5 86 21 86 45 C86 68 74 84 60 90 C56 91.6 52 92.4 48 92.4 C44 92.4 40 91.6 36 90 C22 84 10 68 10 45 C10 21 27 5 48 5 Z M48 11 C65.5 11 80 24.5 80 45 C80 65 69.5 79 58 84 C54.5 85.5 51 86.2 48 86.2 C45 86.2 41.5 85.5 38 84 C26.5 79 16 65 16 45 C16 24.5 30.5 11 48 11 Z"/>
    <path d="M48 11 C65.5 11 80 24.5 80 45 C80 65 69.5 79 58 84 C54.5 85.5 51 86.2 48 86.2 C45 86.2 41.5 85.5 38 84 C26.5 79 16 65 16 45 C16 24.5 30.5 11 48 11 Z" stroke="#C9A961" stroke-width="1.6" opacity="0.9"/>
    <rect x="43" y="90" width="10" height="8" rx="3" fill="#FAF8F3"/>
    <rect x="43" y="100" width="10" height="8" rx="3" fill="#FAF8F3"/>
    <rect x="43" y="110" width="10" height="8" rx="3" fill="#FAF8F3"/>
    <rect x="41" y="120" width="14" height="7" rx="3.5" fill="#FAF8F3"/>
  </g>
  <circle cx="396" cy="126" r="44" fill="#C9A961"/>
  <path d="M358 146 C372 126 392 114 420 116" stroke="#A98944" stroke-width="4.5" fill="none" stroke-linecap="round" opacity="0.75"/>
  <circle cx="382" cy="110" r="11" fill="#E8D6B0" opacity="0.55"/>
</svg>
